<?xml version="1.0" standalone="no"?>
<!DOCTYPE svg PUBLIC "-//W3C//DTD SVG 1.0//EN" "http://www.w3.org/TR/2001/REC-SVG-20010904/DTD/svg10.dtd">
<svg xmlns="http://www.w3.org/2000/svg" xmlns:xlink="http://www.w3.org/1999/xlink" id="body_1" width="1866" height="1140">

<defs>
        <clipPath  id="1">

            <path clip-rule="evenodd" d="M0 0L1435 0L1435 877L0 877z" />        </clipPath>
</defs>

<g transform="matrix(1.299886 0 0 1.299886 0.33179462 -0)">
	<g clip-path="url(#1)" >
        <path d="M0 0L1435 0L1435 877L0 877z" stroke="none" fill="#1A1333" fill-rule="nonzero" />
		<g>
            <path d="M350 153C 350 202.15335 332.62167 244.10835 297.865 278.865C 263.10834 313.62167 221.15335 331 172 331C 122.84666 331 80.891655 313.62167 46.134995 278.865C 11.378332 244.10835 -6 202.15335 -6 153C -6 103.84666 11.378332 61.891655 46.134995 27.134995C 80.891655 -7.62167 122.84666 -25.000002 172 -25C 221.15335 -25.000002 263.10834 -7.62167 297.865 27.134995C 332.62167 61.891655 350 103.84666 350 153C 350 155.07133 349.96387 157.14204 349.89157 159.21211" stroke="none" fill="#352467" fill-rule="nonzero" />
		</g>
		<g>
            <path d="M1477 142C 1477 191.15335 1459.6217 233.10834 1424.865 267.865C 1390.1084 302.62167 1348.1533 320 1299 320C 1249.8467 320 1207.8917 302.62167 1173.135 267.865C 1138.3784 233.10834 1121 191.15335 1121 142C 1121 92.84666 1138.3784 50.89165 1173.135 16.134995C 1207.8917 -18.621668 1249.8467 -36 1299 -36C 1348.1533 -36 1390.1084 -18.621668 1424.865 16.134995C 1459.6217 50.89165 1477 92.84666 1477 142C 1477 144.07133 1476.9639 146.14203 1476.8916 148.21211" stroke="none" fill="#352467" fill-rule="nonzero" />
		</g>
		<g>
            <path d="M1299 460C 1299 519.9229 1277.8141 571.0703 1235.4421 613.44214C 1193.0703 655.8141 1141.923 677 1082 677C 1022.07715 677 970.92975 655.8141 928.55786 613.44214C 886.186 571.0703 865 519.9229 865 460C 865 400.07712 886.186 348.92972 928.55786 306.55783C 970.92975 264.18594 1022.07715 243 1082 243C 1141.923 243 1193.0703 264.18594 1235.4421 306.55783C 1277.8141 348.92972 1299 400.07712 1299 460C 1299 462.52518 1298.9559 465.04956 1298.8678 467.57318" stroke="none" fill="#352467" fill-rule="nonzero" />
		</g>
	</g>
</g>
</svg>